<?xml version="1.0" encoding="UTF-8"?>
<svg xmlns="http://www.w3.org/2000/svg" style="display: none;">
<symbol id="house-tree" viewBox="0 0 640 512">
<path class="fa-primary" style="fill:var(--fa-primary-color,inherit);opacity:var(--fa-primary-opacity,1);" d="M0 464V277.1c0-13.5 5.6-26.3 15.6-35.4l144-132c18.4-16.8 46.5-16.8 64.9 0l144 132c9.9 9.1 15.6 21.9 15.6 35.4V464c0 26.5-21.5 48-48 48H48c-26.5 0-48-21.5-48-48zM168 272c-13.3 0-24 10.7-24 24v48c0 13.3 10.7 24 24 24h48c13.3 0 24-10.7 24-24V296c0-13.3-10.7-24-24-24H168z"/><path class="fa-secondary" style="fill:var(--fa-secondary-color,inherit);opacity:var(--fa-secondary-opacity,.4);" d="M438.6 9.4c-12.5-12.5-32.8-12.5-45.3 0L282.9 119.9l107.2 98.3c16.5 15.2 25.9 36.5 25.9 59V464c0 18-6 34.6-16 48H608c12.3 0 23.5-7 28.8-18.1s3.8-24.2-3.9-33.9L546.6 352H576c12.3 0 23.5-7 28.8-18.1s3.8-24.2-3.9-33.9L514.6 192H544c12.9 0 24.6-7.8 29.6-19.8s2.2-25.7-6.9-34.9l-128-128z"/>
</symbol>
<symbol id="campground" viewBox="0 0 576 512">
<path class="fa-primary" style="fill:var(--fa-primary-color,inherit);opacity:var(--fa-primary-opacity,1);" d="M372 7c13.8 11 16 31.2 5 45l-48 60L563.7 405.4c7.9 9.9 12.3 22.3 12.3 35V448H407.5L288 291.7 168.5 448H0v-7.6c0-12.7 4.3-25.1 12.3-35L247 112 199 52c-11-13.8-8.8-33.9 5-45s33.9-8.8 45 5l39 48.8L327 12c11-13.8 31.2-16 45-5zM47.7 512H528.3c-.1 0-.2 0-.3 0H288 48c-.1 0-.2 0-.3 0z"/><path class="fa-secondary" style="fill:var(--fa-secondary-color,inherit);opacity:var(--fa-secondary-opacity,.4);" d="M0 448v16c0 26.5 21.5 48 48 48H288 528c26.5 0 48-21.5 48-48V448H407.5l0 0H288 168.5l0 0H0z"/>
</symbol>
</svg>